<svg xmlns="http://www.w3.org/2000/svg" width="720" height="420" viewBox="0 0 720 420" role="img" aria-label="Solsystem map">
  <rect width="720" height="420" rx="18" fill="#11161d"/>
  <g stroke="#343b47" stroke-width="2" fill="none">
    <circle cx="360" cy="212" r="58"/>
    <circle cx="360" cy="212" r="116"/>
    <circle cx="360" cy="212" r="174"/>
    <circle cx="360" cy="212" r="232"/>
  </g>
  <circle cx="360" cy="212" r="24" fill="#f1c84b"/>
  <circle cx="452" cy="142" r="13" fill="#42c2ba"/>
  <circle cx="250" cy="286" r="15" fill="#9bd56b"/>
  <circle cx="520" cy="286" r="12" fill="#ef756f"/>
  <circle cx="185" cy="142" r="10" fill="#cfd5db"/>
  <g fill="#20252e" stroke="#596170" stroke-width="3">
    <rect x="400" y="92" width="88" height="34" rx="8"/>
    <rect x="190" y="320" width="112" height="34" rx="8"/>
    <rect x="506" y="238" width="96" height="34" rx="8"/>
  </g>
  <g stroke="#42c2ba" stroke-width="4" stroke-linecap="round">
    <path d="M424 109h42"/>
    <path d="M214 337h64"/>
    <path d="M530 255h48"/>
  </g>
  <path d="M180 142c84 68 224 88 340 144" stroke="#f1c84b" stroke-width="3" stroke-dasharray="8 10" fill="none"/>
  <text x="42" y="68" fill="#f4f0e8" font-family="Segoe UI, Arial" font-size="30" font-weight="800">Solsystem</text>
  <text x="42" y="98" fill="#42c2ba" font-family="Segoe UI, Arial" font-size="18" font-weight="700">Mining · salvage · refineries · trade</text>
  <text x="420" y="118" fill="#f4f0e8" font-family="Segoe UI, Arial" font-size="15" font-weight="700">REFINERY</text>
  <text x="208" y="346" fill="#f4f0e8" font-family="Segoe UI, Arial" font-size="15" font-weight="700">MINING</text>
  <text x="528" y="264" fill="#f4f0e8" font-family="Segoe UI, Arial" font-size="15" font-weight="700">SALE</text>
</svg>
